<?xml version="1.0" encoding="UTF-8"?>
<svg width="24px" height="18px" viewBox="0 0 24 18" version="1.1" xmlns="http://www.w3.org/2000/svg" xmlns:xlink="http://www.w3.org/1999/xlink">
    <!-- Generator: Sketch 48.2 (47327) - http://www.bohemiancoding.com/sketch -->
    <title>Page 1</title>
    <desc>Created with Sketch.</desc>
    <defs></defs>
    <g id="Arrow-Right" stroke="none" stroke-width="1" fill="none" fill-rule="evenodd">
        <path d="M20,9 L14,5 L14,8 L0,8 L0,10 L14,10 L14,13 L20,9 Z M24,9 C24,13.971 19.971,18 15,18 C11.083,18 7.76,15.493 6.523,12 L8.686,12 C9.812,14.361 12.215,16 15,16 C18.859,16 22,12.859 22,9 C22,5.141 18.859,2 15,2 C12.215,2 9.812,3.639 8.686,6 L6.523,6 C7.76,2.507 11.083,0 15,0 C19.971,0 24,4.029 24,9 Z" id="Page-1" fill="#000000"></path>
    </g>
</svg>
